<mxfile host="app.diagrams.net" agent="Mozilla/5.0 (Windows NT 10.0; Win64; x64) AppleWebKit/537.36 (KHTML, like Gecko) Chrome/135.0.0.0 Safari/537.36" version="26.2.14">
  <diagram id="6a731a19-8d31-9384-78a2-239565b7b9f0" name="Page-1">
    <mxGraphModel dx="2066" dy="1137" grid="1" gridSize="10" guides="1" tooltips="1" connect="1" arrows="1" fold="1" page="1" pageScale="1" pageWidth="827" pageHeight="1169" background="none" math="0" shadow="0">
      <root>
        <mxCell id="0" />
        <mxCell id="1" parent="0" />
        <mxCell id="2086" value="" style="rounded=1;whiteSpace=wrap;html=1;strokeColor=none;fillColor=#BAC8D3;fontSize=24;fontColor=#23445D;align=center;opacity=60;" parent="1" vertex="1">
          <mxGeometry x="1241" y="850" width="160" height="260" as="geometry" />
        </mxCell>
        <mxCell id="2089" value="" style="rounded=1;whiteSpace=wrap;html=1;strokeColor=none;fillColor=#BAC8D3;fontSize=24;fontColor=#23445D;align=center;opacity=60;" parent="1" vertex="1">
          <mxGeometry x="1470" y="660" width="273" height="380" as="geometry" />
        </mxCell>
        <mxCell id="2109" value="Internet" style="shape=mxgraph.cisco.storage.cloud;html=1;dashed=0;strokeColor=#23445D;fillColor=#ffffff;strokeWidth=2;fontFamily=Helvetica;fontSize=24;fontColor=#23445D;align=center;fontStyle=1" parent="1" vertex="1">
          <mxGeometry x="1020" y="73" width="186" height="106" as="geometry" />
        </mxCell>
        <mxCell id="2134" value="" style="shape=mxgraph.cisco.routers.router;html=1;dashed=0;fillColor=#10739E;strokeColor=#ffffff;strokeWidth=2;verticalLabelPosition=bottom;verticalAlign=top;fontFamily=Helvetica;fontSize=36;fontColor=#FFB366" parent="1" vertex="1">
          <mxGeometry x="642" y="350" width="78" height="53" as="geometry" />
        </mxCell>
        <mxCell id="2138" value="" style="shape=mxgraph.cisco.routers.router;html=1;dashed=0;fillColor=#10739E;strokeColor=#ffffff;strokeWidth=2;verticalLabelPosition=bottom;verticalAlign=top;fontFamily=Helvetica;fontSize=36;fontColor=#FFB366" parent="1" vertex="1">
          <mxGeometry x="850" y="350" width="78" height="53" as="geometry" />
        </mxCell>
        <mxCell id="2154" value="" style="line;html=1;strokeColor=#23445D;" parent="1" vertex="1">
          <mxGeometry x="1135" y="820" width="943" height="10" as="geometry" />
        </mxCell>
        <mxCell id="2163" value="" style="edgeStyle=elbowEdgeStyle;elbow=horizontal;endArrow=none;html=1;strokeColor=#23445D;endFill=0;strokeWidth=4;rounded=1;exitX=1;exitY=0.5;exitDx=0;exitDy=0;exitPerimeter=0;entryX=0.029;entryY=0.582;entryDx=0;entryDy=0;entryPerimeter=0;" parent="1" source="QWuc4iYJcbe0LNEVUwJk-2259" edge="1" target="2109">
          <mxGeometry width="100" height="100" relative="1" as="geometry">
            <mxPoint x="894.22" y="146.92" as="sourcePoint" />
            <mxPoint x="939.4977777777774" y="182.00333333333347" as="targetPoint" />
          </mxGeometry>
        </mxCell>
        <mxCell id="2230" value="Access 2" style="rounded=1;whiteSpace=wrap;html=1;strokeColor=none;fillColor=none;fontSize=14;fontColor=#23445D;align=center;fontStyle=1" parent="1" vertex="1">
          <mxGeometry x="1565" y="1013" width="96" height="19" as="geometry" />
        </mxCell>
        <mxCell id="2257" style="edgeStyle=orthogonalEdgeStyle;curved=1;rounded=0;jumpStyle=none;html=1;exitX=0.75;exitY=0;entryX=0.75;entryY=0;shadow=0;labelBackgroundColor=#ffffff;startArrow=none;startFill=0;endArrow=none;endFill=0;endSize=10;jettySize=auto;orthogonalLoop=1;strokeColor=#23445D;strokeWidth=2;fillColor=#F08705;fontFamily=Helvetica;fontSize=25;fontColor=#23445D;align=left;" parent="1" edge="1">
          <mxGeometry relative="1" as="geometry">
            <mxPoint x="1523.75" y="190" as="sourcePoint" />
            <mxPoint x="1523.75" y="190" as="targetPoint" />
          </mxGeometry>
        </mxCell>
        <mxCell id="QWuc4iYJcbe0LNEVUwJk-2257" value="" style="shape=mxgraph.cisco.servers.fileserver;html=1;dashed=0;fillColor=#10739E;strokeColor=#ffffff;strokeWidth=2;verticalLabelPosition=bottom;verticalAlign=top;fontFamily=Helvetica;fontSize=36;fontColor=#FFB366" vertex="1" parent="1">
          <mxGeometry x="570" y="219.5" width="43" height="62" as="geometry" />
        </mxCell>
        <mxCell id="QWuc4iYJcbe0LNEVUwJk-2258" value="" style="shape=mxgraph.cisco.switches.workgroup_switch;html=1;dashed=0;fillColor=#10739E;strokeColor=#ffffff;strokeWidth=2;verticalLabelPosition=bottom;verticalAlign=top;fontFamily=Helvetica;fontSize=36;fontColor=#FFB366" vertex="1" parent="1">
          <mxGeometry x="746" y="231.5" width="101" height="50" as="geometry" />
        </mxCell>
        <mxCell id="QWuc4iYJcbe0LNEVUwJk-2259" value="" style="shape=mxgraph.cisco.switches.layer_3_switch;sketch=0;html=1;pointerEvents=1;dashed=0;fillColor=#036897;strokeColor=#ffffff;strokeWidth=2;verticalLabelPosition=bottom;verticalAlign=top;align=center;outlineConnect=0;" vertex="1" parent="1">
          <mxGeometry x="774.5" y="118" width="64" height="64" as="geometry" />
        </mxCell>
        <mxCell id="QWuc4iYJcbe0LNEVUwJk-2260" value="" style="elbow=horizontal;endArrow=none;html=1;strokeColor=#23445D;endFill=0;strokeWidth=4;rounded=1;exitX=0.5;exitY=1;exitDx=0;exitDy=0;exitPerimeter=0;entryX=0.594;entryY=-0.003;entryDx=0;entryDy=0;entryPerimeter=0;" edge="1" parent="1" source="QWuc4iYJcbe0LNEVUwJk-2259" target="QWuc4iYJcbe0LNEVUwJk-2258">
          <mxGeometry width="100" height="100" relative="1" as="geometry">
            <mxPoint x="1007" y="124" as="sourcePoint" />
            <mxPoint x="851" y="154" as="targetPoint" />
          </mxGeometry>
        </mxCell>
        <mxCell id="QWuc4iYJcbe0LNEVUwJk-2261" value="" style="elbow=horizontal;endArrow=none;html=1;strokeColor=#23445D;endFill=0;strokeWidth=4;rounded=1;exitX=0.37;exitY=1.05;exitDx=0;exitDy=0;exitPerimeter=0;entryX=0.5;entryY=0;entryDx=0;entryDy=0;entryPerimeter=0;" edge="1" parent="1" source="QWuc4iYJcbe0LNEVUwJk-2258" target="2134">
          <mxGeometry width="100" height="100" relative="1" as="geometry">
            <mxPoint x="819" y="192" as="sourcePoint" />
            <mxPoint x="816" y="241" as="targetPoint" />
          </mxGeometry>
        </mxCell>
        <mxCell id="QWuc4iYJcbe0LNEVUwJk-2262" value="" style="elbow=horizontal;endArrow=none;html=1;strokeColor=#23445D;endFill=0;strokeWidth=4;rounded=1;exitX=0.383;exitY=1.023;exitDx=0;exitDy=0;exitPerimeter=0;entryX=0.5;entryY=0;entryDx=0;entryDy=0;entryPerimeter=0;" edge="1" parent="1" source="QWuc4iYJcbe0LNEVUwJk-2258" target="2138">
          <mxGeometry width="100" height="100" relative="1" as="geometry">
            <mxPoint x="793" y="294" as="sourcePoint" />
            <mxPoint x="681" y="420" as="targetPoint" />
          </mxGeometry>
        </mxCell>
        <mxCell id="QWuc4iYJcbe0LNEVUwJk-2263" value="" style="shape=mxgraph.cisco.switches.workgroup_switch;sketch=0;html=1;pointerEvents=1;dashed=0;fillColor=#036897;strokeColor=#ffffff;strokeWidth=2;verticalLabelPosition=bottom;verticalAlign=top;align=center;outlineConnect=0;" vertex="1" parent="1">
          <mxGeometry x="838.5" y="470" width="101" height="50" as="geometry" />
        </mxCell>
        <mxCell id="QWuc4iYJcbe0LNEVUwJk-2264" value="" style="shape=mxgraph.cisco.switches.workgroup_switch;sketch=0;html=1;pointerEvents=1;dashed=0;fillColor=#036897;strokeColor=#ffffff;strokeWidth=2;verticalLabelPosition=bottom;verticalAlign=top;align=center;outlineConnect=0;" vertex="1" parent="1">
          <mxGeometry x="630.5" y="470" width="101" height="50" as="geometry" />
        </mxCell>
        <mxCell id="QWuc4iYJcbe0LNEVUwJk-2265" value="" style="elbow=horizontal;endArrow=none;html=1;strokeColor=#23445D;endFill=0;strokeWidth=4;rounded=1;exitX=0.98;exitY=0.5;exitDx=0;exitDy=0;exitPerimeter=0;" edge="1" parent="1" source="QWuc4iYJcbe0LNEVUwJk-2264" target="QWuc4iYJcbe0LNEVUwJk-2263">
          <mxGeometry width="100" height="100" relative="1" as="geometry">
            <mxPoint x="795" y="293" as="sourcePoint" />
            <mxPoint x="899" y="420" as="targetPoint" />
          </mxGeometry>
        </mxCell>
        <mxCell id="QWuc4iYJcbe0LNEVUwJk-2266" value="" style="elbow=horizontal;endArrow=none;html=1;strokeColor=#23445D;endFill=0;strokeWidth=4;rounded=1;exitX=0.5;exitY=1;exitDx=0;exitDy=0;exitPerimeter=0;" edge="1" parent="1" source="2134" target="QWuc4iYJcbe0LNEVUwJk-2264">
          <mxGeometry width="100" height="100" relative="1" as="geometry">
            <mxPoint x="728" y="620" as="sourcePoint" />
            <mxPoint x="870" y="616" as="targetPoint" />
          </mxGeometry>
        </mxCell>
        <mxCell id="QWuc4iYJcbe0LNEVUwJk-2267" value="" style="elbow=horizontal;endArrow=none;html=1;strokeColor=#23445D;endFill=0;strokeWidth=4;rounded=1;exitX=0.5;exitY=1;exitDx=0;exitDy=0;exitPerimeter=0;entryX=0.5;entryY=0;entryDx=0;entryDy=0;entryPerimeter=0;" edge="1" parent="1" source="2134" target="QWuc4iYJcbe0LNEVUwJk-2263">
          <mxGeometry width="100" height="100" relative="1" as="geometry">
            <mxPoint x="681" y="473" as="sourcePoint" />
            <mxPoint x="680" y="595" as="targetPoint" />
          </mxGeometry>
        </mxCell>
        <mxCell id="QWuc4iYJcbe0LNEVUwJk-2269" value="" style="elbow=horizontal;endArrow=none;html=1;strokeColor=#23445D;endFill=0;strokeWidth=4;rounded=1;exitX=0.5;exitY=1;exitDx=0;exitDy=0;exitPerimeter=0;entryX=0.5;entryY=0;entryDx=0;entryDy=0;entryPerimeter=0;" edge="1" parent="1" source="2138" target="QWuc4iYJcbe0LNEVUwJk-2263">
          <mxGeometry width="100" height="100" relative="1" as="geometry">
            <mxPoint x="681" y="473" as="sourcePoint" />
            <mxPoint x="921" y="590" as="targetPoint" />
          </mxGeometry>
        </mxCell>
        <mxCell id="QWuc4iYJcbe0LNEVUwJk-2270" value="" style="elbow=horizontal;endArrow=none;html=1;strokeColor=#23445D;endFill=0;strokeWidth=4;rounded=1;exitX=0.5;exitY=1;exitDx=0;exitDy=0;exitPerimeter=0;entryX=0.5;entryY=0;entryDx=0;entryDy=0;entryPerimeter=0;" edge="1" parent="1" source="2138" target="QWuc4iYJcbe0LNEVUwJk-2264">
          <mxGeometry width="100" height="100" relative="1" as="geometry">
            <mxPoint x="899" y="473" as="sourcePoint" />
            <mxPoint x="931" y="600" as="targetPoint" />
          </mxGeometry>
        </mxCell>
        <mxCell id="QWuc4iYJcbe0LNEVUwJk-2271" value="" style="shape=mxgraph.cisco.servers.standard_host;sketch=0;html=1;pointerEvents=1;dashed=0;fillColor=#036897;strokeColor=#ffffff;strokeWidth=2;verticalLabelPosition=bottom;verticalAlign=top;align=center;outlineConnect=0;" vertex="1" parent="1">
          <mxGeometry x="558" y="598" width="43" height="62" as="geometry" />
        </mxCell>
        <mxCell id="QWuc4iYJcbe0LNEVUwJk-2272" value="" style="shape=mxgraph.cisco.servers.standard_host;sketch=0;html=1;pointerEvents=1;dashed=0;fillColor=#036897;strokeColor=#ffffff;strokeWidth=2;verticalLabelPosition=bottom;verticalAlign=top;align=center;outlineConnect=0;" vertex="1" parent="1">
          <mxGeometry x="784" y="598" width="43" height="62" as="geometry" />
        </mxCell>
        <mxCell id="QWuc4iYJcbe0LNEVUwJk-2273" value="" style="elbow=horizontal;endArrow=none;html=1;strokeColor=#23445D;endFill=0;strokeWidth=4;rounded=1;exitX=0.5;exitY=0.98;exitDx=0;exitDy=0;exitPerimeter=0;entryX=0.5;entryY=0;entryDx=0;entryDy=0;entryPerimeter=0;" edge="1" parent="1" source="QWuc4iYJcbe0LNEVUwJk-2264" target="QWuc4iYJcbe0LNEVUwJk-2271">
          <mxGeometry width="100" height="100" relative="1" as="geometry">
            <mxPoint x="899" y="413" as="sourcePoint" />
            <mxPoint x="691" y="480" as="targetPoint" />
          </mxGeometry>
        </mxCell>
        <mxCell id="QWuc4iYJcbe0LNEVUwJk-2277" value="" style="elbow=horizontal;endArrow=none;html=1;strokeColor=#23445D;endFill=0;strokeWidth=4;rounded=1;entryX=0.5;entryY=0;entryDx=0;entryDy=0;entryPerimeter=0;exitX=0.5;exitY=0.98;exitDx=0;exitDy=0;exitPerimeter=0;" edge="1" parent="1" source="QWuc4iYJcbe0LNEVUwJk-2264" target="QWuc4iYJcbe0LNEVUwJk-2272">
          <mxGeometry width="100" height="100" relative="1" as="geometry">
            <mxPoint x="680" y="540" as="sourcePoint" />
            <mxPoint x="721" y="638" as="targetPoint" />
          </mxGeometry>
        </mxCell>
        <mxCell id="QWuc4iYJcbe0LNEVUwJk-2278" value="" style="elbow=horizontal;endArrow=none;html=1;strokeColor=#23445D;endFill=0;strokeWidth=4;rounded=1;entryX=0.5;entryY=0;entryDx=0;entryDy=0;entryPerimeter=0;exitX=0.5;exitY=0.98;exitDx=0;exitDy=0;exitPerimeter=0;" edge="1" parent="1" source="QWuc4iYJcbe0LNEVUwJk-2263" target="QWuc4iYJcbe0LNEVUwJk-2272">
          <mxGeometry width="100" height="100" relative="1" as="geometry">
            <mxPoint x="691" y="529" as="sourcePoint" />
            <mxPoint x="902" y="608" as="targetPoint" />
          </mxGeometry>
        </mxCell>
        <mxCell id="QWuc4iYJcbe0LNEVUwJk-2279" value="" style="elbow=horizontal;endArrow=none;html=1;strokeColor=#23445D;endFill=0;strokeWidth=4;rounded=1;exitX=0.5;exitY=0.98;exitDx=0;exitDy=0;exitPerimeter=0;entryX=0.5;entryY=0;entryDx=0;entryDy=0;entryPerimeter=0;" edge="1" parent="1" source="QWuc4iYJcbe0LNEVUwJk-2263" target="QWuc4iYJcbe0LNEVUwJk-2271">
          <mxGeometry width="100" height="100" relative="1" as="geometry">
            <mxPoint x="899" y="529" as="sourcePoint" />
            <mxPoint x="810" y="640" as="targetPoint" />
          </mxGeometry>
        </mxCell>
        <mxCell id="QWuc4iYJcbe0LNEVUwJk-2282" value="" style="shape=mxgraph.cisco.storage.fc_storage;sketch=0;html=1;pointerEvents=1;dashed=0;fillColor=#036897;strokeColor=#ffffff;strokeWidth=2;verticalLabelPosition=bottom;verticalAlign=top;align=center;outlineConnect=0;" vertex="1" parent="1">
          <mxGeometry x="970" y="607.5" width="77" height="43" as="geometry" />
        </mxCell>
        <mxCell id="QWuc4iYJcbe0LNEVUwJk-2283" value="" style="elbow=horizontal;endArrow=none;html=1;strokeColor=#23445D;endFill=0;strokeWidth=4;rounded=1;entryX=0.5;entryY=0;entryDx=0;entryDy=0;entryPerimeter=0;exitX=0.5;exitY=0.98;exitDx=0;exitDy=0;exitPerimeter=0;" edge="1" parent="1" source="QWuc4iYJcbe0LNEVUwJk-2264" target="QWuc4iYJcbe0LNEVUwJk-2282">
          <mxGeometry width="100" height="100" relative="1" as="geometry">
            <mxPoint x="691" y="529" as="sourcePoint" />
            <mxPoint x="902" y="608" as="targetPoint" />
          </mxGeometry>
        </mxCell>
        <mxCell id="QWuc4iYJcbe0LNEVUwJk-2284" value="" style="elbow=horizontal;endArrow=none;html=1;strokeColor=#23445D;endFill=0;strokeWidth=4;rounded=1;entryX=0.5;entryY=0;entryDx=0;entryDy=0;entryPerimeter=0;exitX=0.5;exitY=0.98;exitDx=0;exitDy=0;exitPerimeter=0;" edge="1" parent="1" source="QWuc4iYJcbe0LNEVUwJk-2263" target="QWuc4iYJcbe0LNEVUwJk-2282">
          <mxGeometry width="100" height="100" relative="1" as="geometry">
            <mxPoint x="691" y="529" as="sourcePoint" />
            <mxPoint x="1049" y="618" as="targetPoint" />
          </mxGeometry>
        </mxCell>
        <mxCell id="QWuc4iYJcbe0LNEVUwJk-2285" value="" style="shape=mxgraph.cisco.wireless.wlan_controller;sketch=0;html=1;pointerEvents=1;dashed=0;fillColor=#036897;strokeColor=#ffffff;strokeWidth=2;verticalLabelPosition=bottom;verticalAlign=top;align=center;outlineConnect=0;" vertex="1" parent="1">
          <mxGeometry x="1401" y="126" width="101" height="56" as="geometry" />
        </mxCell>
        <mxCell id="QWuc4iYJcbe0LNEVUwJk-2286" value="" style="elbow=horizontal;endArrow=none;html=1;strokeColor=#23445D;endFill=0;strokeWidth=4;rounded=1;exitX=0;exitY=0.5;exitDx=0;exitDy=0;exitPerimeter=0;entryX=0.915;entryY=0.634;entryDx=0;entryDy=0;entryPerimeter=0;" edge="1" parent="1" source="QWuc4iYJcbe0LNEVUwJk-2258" target="QWuc4iYJcbe0LNEVUwJk-2257">
          <mxGeometry width="100" height="100" relative="1" as="geometry">
            <mxPoint x="1007" y="124" as="sourcePoint" />
            <mxPoint x="851" y="154" as="targetPoint" />
          </mxGeometry>
        </mxCell>
        <mxCell id="QWuc4iYJcbe0LNEVUwJk-2287" value="" style="edgeStyle=elbowEdgeStyle;elbow=horizontal;endArrow=none;html=1;strokeColor=#23445D;endFill=0;strokeWidth=4;rounded=1;entryX=0;entryY=0.5;entryDx=0;entryDy=0;entryPerimeter=0;exitX=0.98;exitY=0.5;exitDx=0;exitDy=0;exitPerimeter=0;" edge="1" parent="1" source="2109" target="QWuc4iYJcbe0LNEVUwJk-2285">
          <mxGeometry width="100" height="100" relative="1" as="geometry">
            <mxPoint x="1170" y="114" as="sourcePoint" />
            <mxPoint x="1270" y="280" as="targetPoint" />
          </mxGeometry>
        </mxCell>
        <mxCell id="QWuc4iYJcbe0LNEVUwJk-2288" value="" style="sketch=0;pointerEvents=1;shadow=0;dashed=0;html=1;strokeColor=none;fillColor=#434445;aspect=fixed;labelPosition=center;verticalLabelPosition=bottom;verticalAlign=top;align=center;outlineConnect=0;shape=mxgraph.vvd.phone;" vertex="1" parent="1">
          <mxGeometry x="1550" y="129" width="29.5" height="50" as="geometry" />
        </mxCell>
        <mxCell id="QWuc4iYJcbe0LNEVUwJk-2289" value="" style="elbow=horizontal;endArrow=none;html=1;strokeColor=#23445D;endFill=0;strokeWidth=4;rounded=1;exitX=1;exitY=0.5;exitDx=0;exitDy=0;exitPerimeter=0;" edge="1" parent="1" source="QWuc4iYJcbe0LNEVUwJk-2285" target="QWuc4iYJcbe0LNEVUwJk-2288">
          <mxGeometry width="100" height="100" relative="1" as="geometry">
            <mxPoint x="1410" y="230" as="sourcePoint" />
            <mxPoint x="1550" y="170" as="targetPoint" />
          </mxGeometry>
        </mxCell>
        <mxCell id="QWuc4iYJcbe0LNEVUwJk-2290" value="&lt;font color=&quot;#23445d&quot;&gt;Equinix Connect&lt;/font&gt;" style="rounded=1;whiteSpace=wrap;html=1;strokeColor=none;fillColor=none;fontSize=14;fontColor=#742B21;align=center;fontStyle=1" vertex="1" parent="1">
          <mxGeometry x="691.5" y="90" width="230" height="19" as="geometry" />
        </mxCell>
        <mxCell id="QWuc4iYJcbe0LNEVUwJk-2291" value="&lt;div&gt;&lt;font color=&quot;#23445d&quot;&gt;Cisco Catalyst2960CX-8TC-L&lt;/font&gt;&lt;/div&gt;" style="rounded=1;whiteSpace=wrap;html=1;strokeColor=none;fillColor=none;fontSize=14;fontColor=#742B21;align=left;fontStyle=1" vertex="1" parent="1">
          <mxGeometry x="850" y="241" width="200" height="19" as="geometry" />
        </mxCell>
      </root>
    </mxGraphModel>
  </diagram>
</mxfile>
